<svg
  width="24"
  height="24"
  viewBox="0 0 24 24"
  fill="none"
  xmlns="http://www.w3.org/2000/svg"
>
  <path
    d="M3 6.75C3 5.23122 4.23122 4 5.75 4H18.25C19.7688 4 21 5.23122 21 6.75V17.25C21 18.7688 19.7688 20 18.25 20H5.75C4.23122 20 3 18.7688 3 17.25V6.75Z"
    fill="#9EC3DE"
  />
  <path
    d="M5.15 6.5L11.71 11.75C11.8836 11.8889 12.1264 11.8889 12.3 11.75L18.85 6.5H5.15Z"
    fill="#091018"
  />
  <path
    d="M4.5 7.65V17.25C4.5 17.9404 5.05964 18.5 5.75 18.5H18.25C18.9404 18.5 19.5 17.9404 19.5 17.25V7.65L13.23 12.67C12.5079 13.2478 11.4921 13.2478 10.77 12.67L4.5 7.65Z"
    fill="#0F1722"
  />
</svg>
